<svg width="99" height="30" viewBox="0 0 99 30" fill="none" xmlns="http://www.w3.org/2000/svg">
<path d="M41.5868 22.3297C39.6015 22.3297 38.02 21.7762 36.8423 20.6692C35.6646 19.5622 35.0505 17.9189 35 15.7395C35 15.6184 35 15.4627 35 15.2724C35 15.0822 35 14.9351 35 14.8314C35.0505 13.4649 35.3491 12.293 35.8959 11.3157C36.4427 10.3384 37.1998 9.59459 38.1672 9.08432C39.1346 8.57405 40.266 8.31892 41.5615 8.31892C43.0421 8.31892 44.266 8.62162 45.2334 9.22703C46.2008 9.83243 46.9285 10.6541 47.4164 11.6919C47.9043 12.7297 48.1483 13.9146 48.1483 15.2465V15.8692C48.1483 16.0595 48.0894 16.2151 47.9716 16.3362C47.8538 16.4573 47.7024 16.5178 47.5174 16.5178H39.4416C39.4416 16.5351 39.4416 16.5611 39.4416 16.5957C39.4416 16.6303 39.4416 16.6649 39.4416 16.6995C39.4585 17.2011 39.5468 17.6595 39.7066 18.0746C39.8665 18.4897 40.102 18.8184 40.4132 19.0605C40.7245 19.3027 41.1073 19.4238 41.5615 19.4238C41.898 19.4238 42.1798 19.3676 42.4069 19.2551C42.6341 19.1427 42.8233 19.013 42.9748 18.8659C43.1262 18.7189 43.244 18.5935 43.3281 18.4897C43.4795 18.2995 43.6015 18.1827 43.694 18.1395C43.7865 18.0962 43.9338 18.0746 44.1356 18.0746H47.265C47.4332 18.0746 47.572 18.1265 47.6814 18.2303C47.7907 18.3341 47.837 18.4724 47.8202 18.6454C47.8034 18.9395 47.6604 19.2941 47.3912 19.7092C47.122 20.1243 46.7308 20.5351 46.2177 20.9416C45.7045 21.3481 45.061 21.6811 44.2871 21.9405C43.5131 22.2 42.613 22.3297 41.5868 22.3297ZM39.4416 13.9492H43.7066V13.8973C43.7066 13.3265 43.6267 12.8378 43.4669 12.4314C43.307 12.0249 43.0631 11.7092 42.735 11.4843C42.4069 11.2595 42.0158 11.147 41.5615 11.147C41.1241 11.147 40.7455 11.2595 40.4259 11.4843C40.1062 11.7092 39.8623 12.0249 39.694 12.4314C39.5258 12.8378 39.4416 13.3265 39.4416 13.8973V13.9492ZM48.6088 27C48.4238 27 48.2723 26.9351 48.1546 26.8054C48.0368 26.6757 47.9779 26.5243 47.9779 26.3514V24.2497C47.9779 24.0595 48.0368 23.9038 48.1546 23.7827C48.2723 23.6616 48.4238 23.6011 48.6088 23.6011H49.5426C49.9632 23.6011 50.2829 23.5189 50.5016 23.3546C50.7203 23.1903 50.8717 22.9654 50.9558 22.68C51.04 22.3946 51.082 22.0703 51.082 21.707V9.22703C51.082 9.03676 51.1451 8.88108 51.2713 8.76C51.3975 8.63892 51.5447 8.57838 51.7129 8.57838H54.8423C55.0273 8.57838 55.1788 8.63892 55.2965 8.76C55.4143 8.88108 55.4732 9.03676 55.4732 9.22703V21.8108C55.4732 22.9351 55.2587 23.8822 54.8297 24.6519C54.4006 25.4216 53.7823 26.0054 52.9748 26.4032C52.1672 26.8011 51.183 27 50.0221 27H48.6088ZM51.6877 6.63243C51.5195 6.63243 51.3722 6.57189 51.2461 6.45081C51.1199 6.32973 51.0568 6.17405 51.0568 5.98378V3.64865C51.0568 3.47568 51.1199 3.32432 51.2461 3.19459C51.3722 3.06486 51.5195 3 51.6877 3H54.8675C55.0358 3 55.183 3.06486 55.3092 3.19459C55.4353 3.32432 55.4984 3.47568 55.4984 3.64865V5.98378C55.4984 6.17405 55.4353 6.32973 55.3092 6.45081C55.183 6.57189 55.0358 6.63243 54.8675 6.63243H51.6877ZM64.918 22.3297C62.9327 22.3297 61.3512 21.7762 60.1735 20.6692C58.9958 19.5622 58.3817 17.9189 58.3312 15.7395C58.3312 15.6184 58.3312 15.4627 58.3312 15.2724C58.3312 15.0822 58.3312 14.9351 58.3312 14.8314C58.3817 13.4649 58.6803 12.293 59.2271 11.3157C59.7739 10.3384 60.531 9.59459 61.4984 9.08432C62.4658 8.57405 63.5973 8.31892 64.8927 8.31892C66.3733 8.31892 67.5973 8.62162 68.5647 9.22703C69.5321 9.83243 70.2597 10.6541 70.7476 11.6919C71.2355 12.7297 71.4795 13.9146 71.4795 15.2465V15.8692C71.4795 16.0595 71.4206 16.2151 71.3028 16.3362C71.1851 16.4573 71.0336 16.5178 70.8486 16.5178H62.7729C62.7729 16.5351 62.7729 16.5611 62.7729 16.5957C62.7729 16.6303 62.7729 16.6649 62.7729 16.6995C62.7897 17.2011 62.878 17.6595 63.0379 18.0746C63.1977 18.4897 63.4332 18.8184 63.7445 19.0605C64.0557 19.3027 64.4385 19.4238 64.8927 19.4238C65.2292 19.4238 65.511 19.3676 65.7382 19.2551C65.9653 19.1427 66.1546 19.013 66.306 18.8659C66.4574 18.7189 66.5752 18.5935 66.6593 18.4897C66.8107 18.2995 66.9327 18.1827 67.0252 18.1395C67.1178 18.0962 67.265 18.0746 67.4669 18.0746H70.5962C70.7645 18.0746 70.9033 18.1265 71.0126 18.2303C71.122 18.3341 71.1682 18.4724 71.1514 18.6454C71.1346 18.9395 70.9916 19.2941 70.7224 19.7092C70.4532 20.1243 70.062 20.5351 69.5489 20.9416C69.0358 21.3481 68.3922 21.6811 67.6183 21.9405C66.8444 22.2 65.9443 22.3297 64.918 22.3297ZM62.7729 13.9492H67.0379V13.8973C67.0379 13.3265 66.9579 12.8378 66.7981 12.4314C66.6383 12.0249 66.3943 11.7092 66.0662 11.4843C65.7382 11.2595 65.347 11.147 64.8927 11.147C64.4553 11.147 64.0768 11.2595 63.7571 11.4843C63.4374 11.7092 63.1935 12.0249 63.0252 12.4314C62.857 12.8378 62.7729 13.3265 62.7729 13.8973V13.9492ZM80.1672 22.3297C78.9222 22.3297 77.8202 22.0962 76.8612 21.6292C75.9022 21.1622 75.1409 20.4832 74.5773 19.5924C74.0137 18.7016 73.7066 17.6335 73.6562 16.3881C73.6393 16.1114 73.6309 15.7611 73.6309 15.3373C73.6309 14.9135 73.6393 14.5632 73.6562 14.2865C73.7066 13.0238 74.0095 11.947 74.5647 11.0562C75.1199 10.1654 75.8812 9.48649 76.8486 9.01946C77.816 8.55243 78.9222 8.31892 80.1672 8.31892C81.3281 8.31892 82.3249 8.48757 83.1577 8.82486C83.9905 9.16216 84.6635 9.58162 85.1767 10.0832C85.6898 10.5849 86.0768 11.0995 86.3375 11.627C86.5983 12.1546 86.7371 12.6173 86.7539 13.0151C86.7708 13.1881 86.7119 13.3395 86.5773 13.4692C86.4427 13.5989 86.2913 13.6638 86.123 13.6638H82.918C82.7329 13.6638 82.5899 13.6205 82.489 13.5341C82.388 13.4476 82.2955 13.3178 82.2114 13.1449C82.0095 12.6086 81.7529 12.2281 81.4416 12.0032C81.1304 11.7784 80.7308 11.6659 80.2429 11.6659C79.5699 11.6659 79.0526 11.8908 78.6909 12.3405C78.3291 12.7903 78.1314 13.4822 78.0978 14.4162C78.081 15.1081 78.081 15.7222 78.0978 16.2584C78.1483 17.2097 78.3502 17.9016 78.7035 18.3341C79.0568 18.7665 79.5699 18.9827 80.2429 18.9827C80.7645 18.9827 81.1767 18.8659 81.4795 18.6324C81.7823 18.3989 82.0263 18.0227 82.2114 17.5038C82.2955 17.3308 82.388 17.2011 82.489 17.1146C82.5899 17.0281 82.7329 16.9849 82.918 16.9849H86.123C86.2913 16.9849 86.4427 17.0454 86.5773 17.1665C86.7119 17.2876 86.7708 17.4432 86.7539 17.6335C86.7371 17.9103 86.653 18.2476 86.5016 18.6454C86.3502 19.0432 86.1146 19.4584 85.795 19.8908C85.4753 20.3232 85.0589 20.7211 84.5457 21.0843C84.0326 21.4476 83.4143 21.7459 82.6909 21.9795C81.9674 22.213 81.1262 22.3297 80.1672 22.3297ZM96.0221 22.0703C94.9453 22.0703 94.0158 21.893 93.2334 21.5384C92.4511 21.1838 91.8496 20.6303 91.429 19.8778C91.0084 19.1254 90.7981 18.1524 90.7981 16.9589V11.9773H88.8297C88.6446 11.9773 88.489 11.9168 88.3628 11.7957C88.2366 11.6746 88.1735 11.5189 88.1735 11.3286V9.22703C88.1735 9.03676 88.2366 8.88108 88.3628 8.76C88.489 8.63892 88.6446 8.57838 88.8297 8.57838H90.7981V4.2973C90.7981 4.10703 90.8612 3.95135 90.9874 3.83027C91.1136 3.70919 91.2608 3.64865 91.429 3.64865H94.3565C94.5415 3.64865 94.693 3.70919 94.8107 3.83027C94.9285 3.95135 94.9874 4.10703 94.9874 4.2973V8.57838H98.142C98.327 8.57838 98.4827 8.63892 98.6088 8.76C98.735 8.88108 98.7981 9.03676 98.7981 9.22703V11.3286C98.7981 11.5189 98.735 11.6746 98.6088 11.7957C98.4827 11.9168 98.327 11.9773 98.142 11.9773H94.9874V16.5957C94.9874 17.1838 95.0967 17.6508 95.3155 17.9968C95.5342 18.3427 95.9043 18.5157 96.4259 18.5157H98.3691C98.5542 18.5157 98.7056 18.5762 98.8233 18.6973C98.9411 18.8184 99 18.9741 99 19.1643V21.4216C99 21.5946 98.9411 21.7459 98.8233 21.8757C98.7056 22.0054 98.5542 22.0703 98.3691 22.0703H96.0221Z" fill="white"/>
<path d="M2.18481 27.6413H26.0652C26.7201 27.6413 27.2512 28.171 27.25 28.823C27.2488 29.4737 26.719 30 26.0652 30H2.18481C1.52986 30 1 29.4714 1 28.8206C1 28.1687 1.53104 27.6413 2.18481 27.6413Z" fill="#ED184F"/>
<path d="M15.6308 7.00811L14.6561 4.98884C14.4413 4.54481 13.8064 4.54481 13.5928 4.98884L5.15866 22.4621C4.97103 22.8521 5.25543 23.3044 5.69088 23.3044H22.558C22.9922 23.3044 23.2778 22.8533 23.0902 22.4633L19.4201 14.8585C19.1392 14.2758 19.3835 13.5757 19.9688 13.2926C19.9795 13.2879 19.9901 13.282 20.0007 13.2773C20.5707 13.0013 21.2575 13.2398 21.5325 13.8095L26.4369 23.9716C26.8134 24.7516 26.2422 25.6549 25.3737 25.6549H2.87636C2.00781 25.6549 1.43665 24.7516 1.8131 23.9716L13.0606 0.66604C13.4889 -0.222013 14.7599 -0.222013 15.1883 0.66604L17.7585 5.99084C18.0406 6.57583 17.7927 7.27711 17.2062 7.55785C16.6186 7.8386 15.914 7.59192 15.632 7.00811H15.6308Z" fill="#ED184F"/>
</svg>
