<svg width="299" height="343" viewBox="0 0 299 343" fill="none" xmlns="http://www.w3.org/2000/svg">
<path d="M13.4602 315.47H284.755C292.196 315.47 298.229 321.516 298.215 328.957C298.202 336.384 292.182 342.39 284.755 342.39H13.4602C6.01954 342.39 0 336.357 0 328.93C0 321.489 6.03295 315.47 13.4602 315.47Z" fill="#ED184F"/>
<path d="M166.215 79.9835L155.141 56.9376C152.701 51.87 145.488 51.87 143.061 56.9376L47.2449 256.36C45.1132 260.811 48.3442 265.973 53.2912 265.973H244.911C249.845 265.973 253.089 260.825 250.957 256.374L209.263 169.579C206.072 162.93 208.847 154.94 215.497 151.709C215.618 151.655 215.738 151.588 215.859 151.534C222.334 148.384 230.137 151.105 233.261 157.607L288.978 273.588C293.255 282.49 286.766 292.799 276.899 292.799H21.3166C11.4494 292.799 4.96058 282.49 9.23727 273.588L137.015 7.60152C141.882 -2.53384 156.321 -2.53384 161.187 7.60152L190.387 68.3734C193.591 75.0499 190.775 83.0536 184.112 86.2578C177.436 89.4619 169.432 86.6466 166.228 79.9835H166.215Z" fill="#ED184F"/>
</svg>
